<svg xmlns="http://www.w3.org/2000/svg" version="1.1" xmlns:xlink="http://www.w3.org/1999/xlink" xmlns:svgjs="http://svgjs.dev/svgjs" width="1500" height="287" viewBox="0 0 1500 287"><g transform="matrix(1,0,0,1,-0.9090755324062911,-0.9170605105622087)"><svg viewBox="0 0 396 76" data-background-color="#000000" preserveAspectRatio="xMidYMid meet" height="287" width="1500" xmlns="http://www.w3.org/2000/svg" xmlns:xlink="http://www.w3.org/1999/xlink"><g id="tight-bounds" transform="matrix(1,0,0,1,0.23999594055527496,0.2428452919955646)"><svg viewBox="0 0 395.52 75.51430129711936" height="75.51430129711936" width="395.52"><g><svg viewBox="0 0 539.8217783523564 103.06498891900948" height="75.51430129711936" width="395.52"><g transform="matrix(1,0,0,1,0,7.863517696357583)"><svg viewBox="0 0 395.52 87.33795352629431" height="87.33795352629431" width="395.52"><g id="textblocktransform"><svg viewBox="0 0 395.52 87.33795352629431" height="87.33795352629431" width="395.52" id="textblock"><g><svg viewBox="0 0 395.52 87.33795352629431" height="87.33795352629431" width="395.52"><g transform="matrix(1,0,0,1,0,0)"><svg width="395.52" viewBox="1.78 -37.5 226.40653054968797 50" height="87.33795352629431" data-palette-color="#b8dbd9"><path d="M15.58-25L15.58-22.3 9.25-22.3 9.22 0 6.53 0 6.55-22.3 1.78-22.3 1.78-25 6.55-25 6.53-32.85 9.22-32.85 9.25-25 15.58-25ZM41.5-15.38L41.5-15.38 41.5 0 38.8 0 38.8-14.95Q38.8-17.18 37.72-19 36.65-20.83 34.82-21.9 33-22.98 30.77-22.98L30.77-22.98Q28.57-22.98 26.75-21.9 24.92-20.83 23.84-19 22.75-17.18 22.75-14.95L22.75-14.95 22.75 0 20.05 0 20.05-37.5 22.75-37.5 22.75-21.18Q24.1-23.25 26.32-24.48 28.55-25.7 31.17-25.7L31.17-25.7Q34.05-25.7 36.39-24.31 38.72-22.93 40.11-20.58 41.5-18.23 41.5-15.38ZM67.15-19.88L67.07-25 69.77-25 69.77 0 67.07 0 67-5.13Q65.72-2.53 63.36-0.94 61 0.65 57.7 0.65L57.7 0.65Q54.97 0.65 52.58-0.39 50.2-1.43 48.37-3.24 46.55-5.05 45.52-7.44 44.5-9.83 44.5-12.58L44.5-12.58Q44.5-15.3 45.51-17.68 46.52-20.05 48.32-21.86 50.12-23.68 52.5-24.69 54.87-25.7 57.57-25.7L57.57-25.7Q60.9-25.7 63.33-24.09 65.77-22.48 67.15-19.88L67.15-19.88ZM57.67-2L57.67-2Q60.55-2 62.61-3.41 64.67-4.83 65.77-7.23 66.87-9.63 66.87-12.5L66.87-12.5Q66.87-15.45 65.76-17.84 64.65-20.23 62.58-21.64 60.52-23.05 57.67-23.05L57.67-23.05Q54.77-23.05 52.41-21.63 50.05-20.2 48.65-17.8 47.25-15.4 47.25-12.5L47.25-12.5Q47.25-9.55 48.68-7.18 50.12-4.8 52.5-3.4 54.87-2 57.67-2ZM87.34-25L87.34-22.3 81.02-22.3 80.99 0 78.29 0 78.32-22.3 73.54-22.3 73.54-25 78.32-25 78.29-32.85 80.99-32.85 81.02-25 87.34-25ZM103.94 0.65L103.94 0.65Q101.17 0.65 98.57-0.21 95.97-1.07 94.03-2.66 92.09-4.25 91.32-6.48L91.32-6.48 93.84-7.43Q94.44-5.73 96.03-4.51 97.62-3.3 99.7-2.68 101.79-2.05 103.94-2.05L103.94-2.05Q106.49-2.05 108.72-2.93 110.94-3.8 112.32-5.36 113.69-6.93 113.69-9.08L113.69-9.08Q113.69-11.23 112.27-12.61 110.84-14 108.6-14.81 106.37-15.63 103.94-16.07L103.94-16.07Q100.39-16.7 97.59-17.74 94.79-18.78 93.15-20.68 91.52-22.58 91.52-25.78L91.52-25.78Q91.52-28.75 93.25-30.93 94.99-33.1 97.82-34.3 100.64-35.5 103.94-35.5L103.94-35.5Q106.62-35.5 109.19-34.66 111.77-33.83 113.74-32.23 115.72-30.63 116.59-28.33L116.59-28.33 114.02-27.4Q113.42-29.13 111.84-30.33 110.27-31.53 108.18-32.15 106.09-32.77 103.94-32.77L103.94-32.77Q101.37-32.8 99.15-31.91 96.94-31.03 95.58-29.45 94.22-27.88 94.22-25.78L94.22-25.78Q94.22-23.35 95.49-22.03 96.77-20.7 98.97-20.04 101.17-19.38 103.94-18.85L103.94-18.85Q107.24-18.28 110.08-17.09 112.92-15.9 114.65-13.94 116.39-11.98 116.39-9.08L116.39-9.08Q116.39-6.13 114.65-3.94 112.92-1.75 110.09-0.55 107.27 0.65 103.94 0.65ZM124.64-5.1L124.64 12.5 121.94 12.5 121.94-25 124.64-25 124.64-19.85Q125.96-22.45 128.35-24.05 130.74-25.65 134.06-25.65L134.06-25.65Q136.79-25.65 139.16-24.63 141.54-23.6 143.35-21.79 145.16-19.98 146.19-17.6 147.21-15.23 147.21-12.5L147.21-12.5Q147.21-9.78 146.19-7.38 145.16-4.98 143.35-3.16 141.54-1.35 139.16-0.33 136.79 0.7 134.06 0.7L134.06 0.7Q130.74 0.7 128.35-0.9 125.96-2.5 124.64-5.1L124.64-5.1ZM134.04-23L134.04-23Q131.19-23 129.13-21.59 127.06-20.18 125.95-17.8 124.84-15.43 124.84-12.5L124.84-12.5Q124.84-9.63 125.94-7.23 127.04-4.83 129.1-3.39 131.16-1.95 134.04-1.95L134.04-1.95Q136.86-1.95 139.23-3.35 141.59-4.75 143.04-7.14 144.49-9.53 144.49-12.5L144.49-12.5Q144.49-15.38 143.08-17.76 141.66-20.15 139.3-21.58 136.94-23 134.04-23ZM172.36-19.88L172.29-25 174.99-25 174.99 0 172.29 0 172.21-5.13Q170.94-2.53 168.57-0.94 166.21 0.65 162.91 0.65L162.91 0.65Q160.19 0.65 157.8-0.39 155.41-1.43 153.59-3.24 151.76-5.05 150.74-7.44 149.71-9.83 149.71-12.58L149.71-12.58Q149.71-15.3 150.72-17.68 151.74-20.05 153.53-21.86 155.34-23.68 157.71-24.69 160.09-25.7 162.78-25.7L162.78-25.7Q166.11-25.7 168.55-24.09 170.99-22.48 172.36-19.88L172.36-19.88ZM162.89-2L162.89-2Q165.76-2 167.82-3.41 169.89-4.83 170.99-7.23 172.09-9.63 172.09-12.5L172.09-12.5Q172.09-15.45 170.97-17.84 169.86-20.23 167.8-21.64 165.74-23.05 162.89-23.05L162.89-23.05Q159.99-23.05 157.62-21.63 155.26-20.2 153.86-17.8 152.46-15.4 152.46-12.5L152.46-12.5Q152.46-9.55 153.9-7.18 155.34-4.8 157.71-3.4 160.09-2 162.89-2ZM198.06-5.88L198.06-5.88 200.46-4.58Q198.76-2.2 196.15-0.78 193.53 0.65 190.48 0.65L190.48 0.65Q187.03 0.65 184.2-1.13 181.36-2.9 179.67-5.89 177.98-8.88 177.98-12.5L177.98-12.5Q177.98-15.25 178.96-17.64 179.93-20.03 181.65-21.84 183.36-23.65 185.63-24.68 187.91-25.7 190.48-25.7L190.48-25.7Q193.53-25.7 196.15-24.28 198.76-22.85 200.46-20.45L200.46-20.45 198.06-19.18Q196.63-21.03 194.61-22.01 192.58-23 190.48-23L190.48-23Q187.73-23 185.51-21.56 183.28-20.13 181.98-17.74 180.68-15.35 180.68-12.5L180.68-12.5Q180.68-9.63 182.01-7.25 183.33-4.88 185.56-3.46 187.78-2.05 190.48-2.05L190.48-2.05Q192.76-2.05 194.76-3.13 196.76-4.2 198.06-5.88ZM215.76 0.65L215.76 0.65Q212.31 0.65 209.47-1.13 206.63-2.9 204.94-5.89 203.26-8.88 203.26-12.5L203.26-12.5Q203.26-15.25 204.23-17.64 205.21-20.03 206.92-21.84 208.63-23.65 210.91-24.68 213.18-25.7 215.76-25.7L215.76-25.7Q218.48-25.7 220.79-24.64 223.11-23.58 224.78-21.65 226.46-19.73 227.36-17.11 228.26-14.5 228.18-11.4L228.18-11.4 206.08-11.4Q206.36-8.72 207.69-6.61 209.03-4.5 211.13-3.29 213.23-2.08 215.76-2.05L215.76-2.05Q218.53-2.05 220.76-3.51 222.98-4.98 224.33-7.53L224.33-7.53 227.06-6.9Q225.56-3.58 222.53-1.46 219.51 0.65 215.76 0.65ZM206.01-13.7L206.01-13.7 225.46-13.7Q225.31-16.28 223.97-18.44 222.63-20.6 220.48-21.9 218.33-23.2 215.76-23.2L215.76-23.2Q213.18-23.2 211.06-21.93 208.93-20.65 207.59-18.49 206.26-16.32 206.01-13.7Z" opacity="1" transform="matrix(1,0,0,1,0,0)" fill="#b8dbd9" class="wordmark-text-0" data-fill-palette-color="primary" id="text-0"></path></svg></g></svg></g></svg></g></svg></g><g transform="matrix(1,0,0,1,436.7567894333469,0)"><svg viewBox="0 0 103.06498891900948 103.06498891900948" height="103.06498891900948" width="103.06498891900948"><g><svg></svg></g><g id="icon-0"><svg viewBox="0 0 103.06498891900948 103.06498891900948" height="103.06498891900948" width="103.06498891900948"><g><path d="M0 51.532c0-28.461 23.072-51.532 51.532-51.532 28.461 0 51.532 23.072 51.533 51.532 0 28.461-23.072 51.532-51.533 51.533-28.461 0-51.532-23.072-51.532-51.533zM51.532 95.189c24.111 0 43.656-19.546 43.657-43.657 0-24.111-19.546-43.656-43.657-43.656-24.111 0-43.656 19.546-43.656 43.656 0 24.111 19.546 43.656 43.656 43.657z" data-fill-palette-color="accent" fill="#586f7c" stroke="transparent"></path><ellipse rx="51.01716951490969" ry="51.01716951490969" cx="51.53249445950474" cy="51.53249445950474" fill="#586f7c" stroke="transparent" stroke-width="0" fill-opacity="1" data-fill-palette-color="accent"></ellipse></g><g transform="matrix(1,0,0,1,24.70486415749081,25.766791190278862)"><svg viewBox="0 0 53.65526060402786 51.531406538451755" height="51.531406538451755" width="53.65526060402786"><g><svg xmlns="http://www.w3.org/2000/svg" xmlns:xlink="http://www.w3.org/1999/xlink" version="1.1" x="0" y="0" viewBox="0 1 48 46.1" style="enable-background:new 0 0 48 48;" xml:space="preserve" height="51.531406538451755" width="53.65526060402786" class="icon-dxe-0" data-fill-palette-color="quaternary" id="dxe-0"><g fill="#b8dbd9" data-fill-palette-color="quaternary"><path d="M22.4 8.8C13.6 8.8 6.5 15.9 6.5 24.7S13.6 40.6 22.4 40.6 38.3 33.5 38.3 24.7 31.2 8.8 22.4 8.8M22.4 38.6C14.7 38.6 8.5 32.4 8.5 24.7S14.7 10.8 22.4 10.8 36.3 17 36.3 24.7 30.1 38.6 22.4 38.6" fill="#b8dbd9" data-fill-palette-color="quaternary"></path><path d="M22.4 15.3C17.2 15.3 13 19.5 13 24.7 13 25.7 13.2 26.8 13.5 27.7 12.9 28.5 12.6 29.5 12.6 30.5 12.6 33.2 14.8 35.4 17.5 35.4 18.9 35.4 20.2 34.8 21.1 33.9 21.5 34 21.9 34 22.4 34 27.6 34 31.8 29.8 31.8 24.6 31.8 19.5 27.6 15.3 22.4 15.3M17.6 33.5C16 33.5 14.7 32.2 14.7 30.6S16 27.7 17.6 27.7 20.5 29 20.5 30.6 19.2 33.5 17.6 33.5M22.4 32.1H22.2C22.4 31.6 22.5 31.1 22.5 30.6 22.5 27.9 20.3 25.7 17.6 25.7 16.7 25.7 15.9 25.9 15.2 26.3 15.1 25.8 15 25.3 15 24.7 15 20.6 18.3 17.3 22.4 17.3S29.8 20.6 29.8 24.7 26.5 32.1 22.4 32.1" fill="#b8dbd9" data-fill-palette-color="quaternary"></path><path d="M44.7 22.5C43.6 11.1 34 2.3 22.4 2.3 19.1 2.3 15.8 3 12.8 4.5 11.8 2.4 9.6 1 7.1 1 3.6 1 0.8 3.8 0.8 7.3 0.8 9.5 1.9 11.4 3.6 12.5 1.3 16.1 0 20.3 0 24.7 0 37 10 47.1 22.4 47.1 32.5 47.1 41.2 40.4 43.9 30.8 46.2 30.7 48 28.9 48 26.6 48 24.6 46.6 22.9 44.7 22.5M2.9 7.2C2.9 4.8 4.8 2.9 7.2 2.9S11.5 4.8 11.5 7.2 9.6 11.5 7.2 11.5 2.9 9.6 2.9 7.2M22.4 45.1C11.1 45.1 2 35.9 2 24.7 2 20.6 3.2 16.7 5.5 13.3 6 13.4 6.6 13.5 7.2 13.5 10.7 13.5 13.5 10.7 13.5 7.2 13.5 6.9 13.5 6.7 13.4 6.4 16.2 5 19.3 4.3 22.4 4.3 32.9 4.3 41.6 12.3 42.7 22.6 40.9 23.1 39.6 24.7 39.6 26.6 39.6 28.3 40.6 29.7 42 30.4 39.5 39.1 31.5 45.1 22.4 45.1M43.8 28.8C42.6 28.8 41.6 27.8 41.6 26.6S42.6 24.4 43.8 24.4 46 25.4 46 26.6 45 28.8 43.8 28.8" fill="#b8dbd9" data-fill-palette-color="quaternary"></path></g></svg></g></svg></g></svg></g></svg></g></svg></g><defs></defs></svg><rect width="395.52" height="75.51430129711936" fill="none" stroke="none" visibility="hidden"></rect></g></svg></g></svg>