<svg xmlns="http://www.w3.org/2000/svg" version="1.1" xmlns:xlink="http://www.w3.org/1999/xlink" xmlns:svgjs="http://svgjs.dev/svgjs" width="1500" height="1500" viewBox="0 0 1500 1500"><rect width="1500" height="1500" fill="#81b29a"></rect><g transform="matrix(0.6666666666666666,0,0,0.6666666666666666,249.39405384344178,618.2603145546676)"><svg viewBox="0 0 396 104" data-background-color="#81b29a" preserveAspectRatio="xMidYMid meet" height="393" width="1500" xmlns="http://www.w3.org/2000/svg" xmlns:xlink="http://www.w3.org/1999/xlink"><g id="tight-bounds" transform="matrix(1,0,0,1,0.23995467799704784,0.29361559662049785)"><svg viewBox="0 0 395.52 103.412678162753" height="103.412678162753" width="395.52"><g><svg viewBox="0 0 594.6371728515292 155.4738637229584" height="103.412678162753" width="395.52"><g transform="matrix(1,0,0,1,0,31.51949645024432)"><svg viewBox="0 0 395.52 92.43487082246978" height="92.43487082246978" width="395.52"><g id="textblocktransform"><svg viewBox="0 0 395.52 92.43487082246978" height="92.43487082246978" width="395.52" id="textblock"><g><svg viewBox="0 0 395.52 92.43487082246978" height="92.43487082246978" width="395.52"><g transform="matrix(1,0,0,1,0,0)"><svg width="395.52" viewBox="0.85 -37.9 210.93 49.3" height="92.43487082246978" data-palette-color="#3d405b"><path d="M5.45-32.15L9.45-32.65 9.45-25.15 16.7-25.15 16.7-21.9 9.45-21.9 9.45-8.55Q9.45-6.9 9.53-5.8 9.6-4.7 9.85-4.05 10.1-3.4 10.55-3.13 11-2.85 11.7-2.85L11.7-2.85Q13.6-2.9 16.1-4.25L16.1-4.25 17.3-1.2Q15.65-0.1 14.23 0.28 12.8 0.65 11.4 0.65L11.4 0.65Q8.1 0.65 6.78-1.23 5.45-3.1 5.45-7.45L5.45-7.45 5.45-21.9 0.85-21.9 0.85-25.15 5.45-25.15 5.45-32.15ZM21.8 0L21.8-37.45 25.8-37.9 25.8-22Q27.3-23 28.77-23.75 30.25-24.5 31.8-25.08 33.35-25.65 34.8-25.65L34.8-25.65Q36.85-25.65 38.22-25.18 39.6-24.7 40.45-23.6 41.3-22.5 41.67-20.7 42.05-18.9 42.05-16.2L42.05-16.2 42.05 0 38.05 0 38.05-15.75Q38.05-17.25 38-18.43 37.95-19.6 37.57-20.43 37.2-21.25 36.42-21.7 35.65-22.15 34.25-22.15L34.25-22.15Q32.95-22.15 31.45-21.58 29.95-21 28.6-20.25 27.25-19.5 25.8-18.5L25.8-18.5 25.8 0 21.8 0ZM63.1-5.85L63.1-11.55Q62.1-11.5 61.2-11.45 60.3-11.4 59.42-11.33 58.55-11.25 57.85-11.15L57.85-11.15Q54.25-10.7 52.75-9.58 51.25-8.45 51.25-6.35L51.25-6.35Q51.25-4.6 52.32-3.73 53.4-2.85 55.15-2.85L55.15-2.85Q57.55-2.85 59.42-3.68 61.3-4.5 63.1-5.85L63.1-5.85ZM63.55 0.4L63.05-2.35Q60.7-1 58.67-0.18 56.65 0.65 54.3 0.65L54.3 0.65Q50.95 0.65 48.97-0.98 47-2.6 47-6.35L47-6.35Q47-8.3 48-9.75 49-11.2 50.62-12.18 52.25-13.15 54.3-13.7 56.35-14.25 58.5-14.4L58.5-14.4Q59.4-14.5 60.85-14.58 62.3-14.65 63.1-14.7L63.1-14.7Q63.1-16.45 63-17.82 62.9-19.2 62.4-20.18 61.9-21.15 60.92-21.65 59.95-22.15 58.15-22.15L58.15-22.15Q56.7-22.15 55.35-21.98 54-21.8 52.95-21.6L52.95-21.6Q51.7-21.35 50.65-21.05L50.65-21.05 49.85-24.5Q51.1-24.8 52.55-25.05L52.55-25.05Q53.8-25.3 55.45-25.48 57.1-25.65 59-25.65L59-25.65Q61.55-25.65 63.12-24.9 64.7-24.15 65.57-22.88 66.45-21.6 66.77-19.98 67.09-18.35 67.09-16.55L67.09-16.55 67.09-4.55Q67.09-3.85 67.12-3.08 67.15-2.3 67.22-1.55 67.3-0.8 67.4 0L67.4 0 63.55 0.4ZM75.99-32.15L79.99-32.65 79.99-25.15 87.24-25.15 87.24-21.9 79.99-21.9 79.99-8.55Q79.99-6.9 80.07-5.8 80.14-4.7 80.39-4.05 80.64-3.4 81.09-3.13 81.54-2.85 82.24-2.85L82.24-2.85Q84.14-2.9 86.64-4.25L86.64-4.25 87.84-1.2Q86.19-0.1 84.77 0.28 83.34 0.65 81.94 0.65L81.94 0.65Q78.64 0.65 77.32-1.23 75.99-3.1 75.99-7.45L75.99-7.45 75.99-21.9 71.39-21.9 71.39-25.15 75.99-25.15 75.99-32.15ZM111.29-33.45L110.59-29.4Q109.39-29.7 108.09-29.95L108.09-29.95Q106.94-30.2 105.47-30.38 103.99-30.55 102.39-30.55L102.39-30.55Q98.69-30.55 97.09-29.43 95.49-28.3 95.49-25.95L95.49-25.95Q95.54-24.1 96.84-22.83 98.14-21.55 100.09-20.48 102.04-19.4 104.37-18.38 106.69-17.35 108.64-16.03 110.59-14.7 111.92-12.93 113.24-11.15 113.24-8.6L113.24-8.6Q113.24-5.65 111.97-3.85 110.69-2.05 108.74-1.05 106.79-0.05 104.47 0.3 102.14 0.65 100.04 0.65L100.04 0.65Q98.04 0.65 96.39 0.4 94.74 0.15 93.54-0.15L93.54-0.15Q92.14-0.5 90.99-0.95L90.99-0.95 91.99-5Q93.14-4.5 94.44-4.15L94.44-4.15Q95.59-3.85 97.02-3.6 98.44-3.35 100.04-3.35L100.04-3.35Q101.99-3.35 103.62-3.6 105.24-3.85 106.44-4.4 107.64-4.95 108.32-5.85 108.99-6.75 108.99-8.05L108.99-8.05Q108.94-10 107.72-11.23 106.49-12.45 104.47-13.58 102.44-14.7 100.12-15.75 97.79-16.8 95.84-18.15 93.89-19.5 92.57-21.35 91.24-23.2 91.24-25.95L91.24-25.95Q91.24-27.55 91.79-29.1 92.34-30.65 93.67-31.85 94.99-33.05 97.12-33.8 99.24-34.55 102.39-34.55L102.39-34.55Q104.19-34.55 105.82-34.38 107.44-34.2 108.64-34L108.64-34Q110.04-33.75 111.29-33.45L111.29-33.45ZM118.69 11.4L118.69-19.35Q118.69-21.15 118.44-24.7L118.44-24.7 122.14-25.2 122.59-22.5Q123.59-23.35 124.66-24.03 125.74-24.7 127.01-25.18 128.29-25.65 129.74-25.65L129.74-25.65Q131.79-25.65 133.61-24.95 135.44-24.25 136.81-22.7 138.19-21.15 138.99-18.68 139.79-16.2 139.79-12.6L139.79-12.6Q139.79-8.95 138.71-6.43 137.64-3.9 135.91-2.33 134.19-0.75 132.01-0.05 129.84 0.65 127.59 0.65L127.59 0.65Q125.19 0.6 122.69 0.05L122.69 0.05 122.69 10.9 118.69 11.4ZM127.59-2.85L127.59-2.85Q129.69-2.85 131.19-3.6 132.69-4.35 133.66-5.68 134.64-7 135.09-8.72 135.54-10.45 135.54-12.4L135.54-12.4Q135.54-14.15 135.21-15.9 134.89-17.65 134.16-19.03 133.44-20.4 132.24-21.28 131.04-22.15 129.29-22.15L129.29-22.15Q127.99-22.15 126.84-21.68 125.69-21.2 124.66-20.53 123.64-19.85 122.69-19L122.69-19 122.69-3.65Q123.24-3.45 123.91-3.28 124.59-3.1 125.51-2.98 126.44-2.85 127.59-2.85ZM159.64-5.85L159.64-11.55Q158.64-11.5 157.74-11.45 156.84-11.4 155.96-11.33 155.09-11.25 154.39-11.15L154.39-11.15Q150.79-10.7 149.29-9.58 147.79-8.45 147.79-6.35L147.79-6.35Q147.79-4.6 148.86-3.73 149.94-2.85 151.69-2.85L151.69-2.85Q154.09-2.85 155.96-3.68 157.84-4.5 159.64-5.85L159.64-5.85ZM160.09 0.4L159.59-2.35Q157.24-1 155.21-0.18 153.19 0.65 150.84 0.65L150.84 0.65Q147.49 0.65 145.51-0.98 143.54-2.6 143.54-6.35L143.54-6.35Q143.54-8.3 144.54-9.75 145.54-11.2 147.16-12.18 148.79-13.15 150.84-13.7 152.89-14.25 155.04-14.4L155.04-14.4Q155.94-14.5 157.39-14.58 158.84-14.65 159.64-14.7L159.64-14.7Q159.64-16.45 159.54-17.82 159.44-19.2 158.94-20.18 158.44-21.15 157.46-21.65 156.49-22.15 154.69-22.15L154.69-22.15Q153.24-22.15 151.89-21.98 150.54-21.8 149.49-21.6L149.49-21.6Q148.24-21.35 147.19-21.05L147.19-21.05 146.39-24.5Q147.64-24.8 149.09-25.05L149.09-25.05Q150.34-25.3 151.99-25.48 153.64-25.65 155.54-25.65L155.54-25.65Q158.09-25.65 159.66-24.9 161.24-24.15 162.11-22.88 162.99-21.6 163.31-19.98 163.64-18.35 163.64-16.55L163.64-16.55 163.64-4.55Q163.64-3.85 163.66-3.08 163.69-2.3 163.76-1.55 163.84-0.8 163.94 0L163.94 0 160.09 0.4ZM187.08-24.85L186.28-21.5Q185.43-21.7 183.93-21.93 182.43-22.15 180.88-22.15L180.88-22.15Q178.63-22.15 177.21-21.25 175.78-20.35 174.98-18.93 174.18-17.5 173.88-15.78 173.58-14.05 173.58-12.4L173.58-12.4Q173.58-9.85 174.23-8.03 174.88-6.2 175.96-5.05 177.03-3.9 178.43-3.38 179.83-2.85 181.38-2.85L181.38-2.85Q182.43-2.85 183.41-2.98 184.38-3.1 185.21-3.28 186.03-3.45 186.78-3.7L186.78-3.7 187.58-0.35Q186.53-0.05 185.63 0.15 184.73 0.35 183.51 0.5 182.28 0.65 180.88 0.65L180.88 0.65Q178.13 0.65 175.98-0.05 173.83-0.75 172.36-2.3 170.88-3.85 170.11-6.35 169.33-8.85 169.33-12.45L169.33-12.45Q169.33-15.95 170.31-18.48 171.28-21 172.88-22.58 174.48-24.15 176.56-24.9 178.63-25.65 180.88-25.65L180.88-25.65Q182.08-25.65 183.21-25.53 184.33-25.4 185.18-25.25L185.18-25.25Q186.18-25.05 187.08-24.85L187.08-24.85ZM209.78-3.95L210.53-0.6Q209.38-0.25 208.16 0 206.93 0.25 205.46 0.45 203.98 0.65 202.38 0.65L202.38 0.65Q199.88 0.65 197.73-0.05 195.58-0.75 193.98-2.3 192.38-3.85 191.46-6.33 190.53-8.8 190.53-12.4L190.53-12.4Q190.53-15.65 191.43-18.13 192.33-20.6 193.91-22.28 195.48-23.95 197.61-24.8 199.73-25.65 202.23-25.65L202.23-25.65Q204.68-25.65 206.48-24.7 208.28-23.75 209.46-22.13 210.63-20.5 211.21-18.32 211.78-16.15 211.78-13.75L211.78-13.75 211.03-11.55 194.88-11.55Q194.88-10 195.28-8.45 195.68-6.9 196.66-5.65 197.63-4.4 199.21-3.63 200.78-2.85 203.13-2.85L203.13-2.85Q204.63-2.85 205.88-3.03 207.13-3.2 208.06-3.43 208.98-3.65 209.78-3.95L209.78-3.95ZM195.03-14.75L207.63-14.75Q207.63-15.1 207.48-16.3 207.33-17.5 206.78-18.8 206.23-20.1 205.08-21.13 203.93-22.15 202.03-22.15L202.03-22.15Q199.93-22.15 198.58-21.28 197.23-20.4 196.43-19.2 195.63-18 195.33-16.75 195.03-15.5 195.03-14.75L195.03-14.75Z" opacity="1" transform="matrix(1,0,0,1,0,0)" fill="#3d405b" class="wordmark-text-0" data-fill-palette-color="primary" id="text-0"></path></svg></g></svg></g></svg></g></svg></g><g transform="matrix(1,0,0,1,439.16330912857075,0)"><svg viewBox="0 0 155.4738637229584 155.4738637229584" height="155.4738637229584" width="155.4738637229584"><g><svg></svg></g><g id="icon-0"><svg viewBox="0 0 155.4738637229584 155.4738637229584" height="155.4738637229584" width="155.4738637229584"><g><path d="M0 77.737c0-42.933 34.804-77.737 77.737-77.737 42.933 0 77.737 34.804 77.737 77.737 0 42.933-34.804 77.737-77.737 77.737-42.933 0-77.737-34.804-77.737-77.737zM77.737 147.138c38.329 0 69.401-31.072 69.401-69.401 0-38.329-31.072-69.401-69.401-69.401-38.329 0-69.401 31.072-69.401 69.401 0 38.329 31.072 69.401 69.401 69.401z" data-fill-palette-color="accent" fill="#e07a5f" stroke="transparent"></path><ellipse rx="76.95956254286442" ry="76.95956254286442" cx="77.7369318614792" cy="77.7369318614792" fill="#e07a5f" stroke="transparent" stroke-width="0" fill-opacity="1" data-fill-palette-color="accent"></ellipse></g><g transform="matrix(1,0,0,1,34.65202995867556,36.3574739923282)"><svg viewBox="0 0 86.16980380560729 82.75891573830201" height="82.75891573830201" width="86.16980380560729"><g><svg xmlns="http://www.w3.org/2000/svg" xmlns:xlink="http://www.w3.org/1999/xlink" version="1.1" x="0" y="0" viewBox="0 1 48 46.1" style="enable-background:new 0 0 48 48;" xml:space="preserve" height="82.75891573830201" width="86.16980380560729" class="icon-dxe-0" data-fill-palette-color="quaternary" id="dxe-0"><g fill="#f2cc8f" data-fill-palette-color="quaternary"><path d="M22.4 8.8C13.6 8.8 6.5 15.9 6.5 24.7S13.6 40.6 22.4 40.6 38.3 33.5 38.3 24.7 31.2 8.8 22.4 8.8M22.4 38.6C14.7 38.6 8.5 32.4 8.5 24.7S14.7 10.8 22.4 10.8 36.3 17 36.3 24.7 30.1 38.6 22.4 38.6" fill="#f2cc8f" data-fill-palette-color="quaternary"></path><path d="M22.4 15.3C17.2 15.3 13 19.5 13 24.7 13 25.7 13.2 26.8 13.5 27.7 12.9 28.5 12.6 29.5 12.6 30.5 12.6 33.2 14.8 35.4 17.5 35.4 18.9 35.4 20.2 34.8 21.1 33.9 21.5 34 21.9 34 22.4 34 27.6 34 31.8 29.8 31.8 24.6 31.8 19.5 27.6 15.3 22.4 15.3M17.6 33.5C16 33.5 14.7 32.2 14.7 30.6S16 27.7 17.6 27.7 20.5 29 20.5 30.6 19.2 33.5 17.6 33.5M22.4 32.1H22.2C22.4 31.6 22.5 31.1 22.5 30.6 22.5 27.9 20.3 25.7 17.6 25.7 16.7 25.7 15.9 25.9 15.2 26.3 15.1 25.8 15 25.3 15 24.7 15 20.6 18.3 17.3 22.4 17.3S29.8 20.6 29.8 24.7 26.5 32.1 22.4 32.1" fill="#f2cc8f" data-fill-palette-color="quaternary"></path><path d="M44.7 22.5C43.6 11.1 34 2.3 22.4 2.3 19.1 2.3 15.8 3 12.8 4.5 11.8 2.4 9.6 1 7.1 1 3.6 1 0.8 3.8 0.8 7.3 0.8 9.5 1.9 11.4 3.6 12.5 1.3 16.1 0 20.3 0 24.7 0 37 10 47.1 22.4 47.1 32.5 47.1 41.2 40.4 43.9 30.8 46.2 30.7 48 28.9 48 26.6 48 24.6 46.6 22.9 44.7 22.5M2.9 7.2C2.9 4.8 4.8 2.9 7.2 2.9S11.5 4.8 11.5 7.2 9.6 11.5 7.2 11.5 2.9 9.6 2.9 7.2M22.4 45.1C11.1 45.1 2 35.9 2 24.7 2 20.6 3.2 16.7 5.5 13.3 6 13.4 6.6 13.5 7.2 13.5 10.7 13.5 13.5 10.7 13.5 7.2 13.5 6.9 13.5 6.7 13.4 6.4 16.2 5 19.3 4.3 22.4 4.3 32.9 4.3 41.6 12.3 42.7 22.6 40.9 23.1 39.6 24.7 39.6 26.6 39.6 28.3 40.6 29.7 42 30.4 39.5 39.1 31.5 45.1 22.4 45.1M43.8 28.8C42.6 28.8 41.6 27.8 41.6 26.6S42.6 24.4 43.8 24.4 46 25.4 46 26.6 45 28.8 43.8 28.8" fill="#f2cc8f" data-fill-palette-color="quaternary"></path></g></svg></g></svg></g></svg></g></svg></g></svg></g><defs></defs></svg><rect width="395.52" height="103.412678162753" fill="none" stroke="none" visibility="hidden"></rect></g></svg></g></svg>